<mxfile host="app.diagrams.net" modified="2024-02-16T14:02:32.501Z" agent="Mozilla/5.0 (Macintosh; Intel Mac OS X 10_15_7) AppleWebKit/537.36 (KHTML, like Gecko) Chrome/120.0.0.0 Safari/537.36" etag="6S-tFynYpGnjSe_PI3iw" version="22.1.18" type="github">
  <diagram id="jk84KoCiqGRbvonOO5nR" name="Page-1">
    <mxGraphModel dx="1306" dy="762" grid="0" gridSize="10" guides="1" tooltips="1" connect="1" arrows="1" fold="1" page="1" pageScale="1" pageWidth="500" pageHeight="190" background="#EFF1F3" math="0" shadow="0">
      <root>
        <mxCell id="0" />
        <mxCell id="1" parent="0" />
        <mxCell id="XSbDL2rr6Gyu1OlXZJMn-2" value="&lt;font style=&quot;font-size: 52px;&quot;&gt;&lt;font style=&quot;font-size: 52px;&quot; color=&quot;#4a919b&quot;&gt;Q&lt;/font&gt;&lt;font style=&quot;font-size: 52px;&quot; color=&quot;#c89932&quot;&gt;P&lt;/font&gt;&lt;font style=&quot;font-size: 52px;&quot; color=&quot;#f19c99&quot;&gt;S&lt;/font&gt;&lt;/font&gt;" style="text;html=1;strokeColor=none;fillColor=none;align=center;verticalAlign=middle;whiteSpace=wrap;rounded=0;" parent="1" vertex="1">
          <mxGeometry x="88" y="20" width="324" height="50" as="geometry" />
        </mxCell>
        <mxCell id="XSbDL2rr6Gyu1OlXZJMn-3" value="&lt;font style=&quot;background-color: rgb(239, 241, 243); font-size: 24px;&quot;&gt;&lt;font style=&quot;font-size: 24px;&quot; color=&quot;#4a919b&quot;&gt;Queries&amp;nbsp;&lt;/font&gt;&lt;span style=&quot;color: rgb(200, 153, 50);&quot;&gt;Per&amp;nbsp;&lt;/span&gt;&lt;font color=&quot;#f19c99&quot; style=&quot;font-size: 24px;&quot;&gt;Second&lt;/font&gt;&lt;/font&gt;" style="text;html=1;strokeColor=none;fillColor=none;align=center;verticalAlign=middle;whiteSpace=wrap;rounded=0;" parent="1" vertex="1">
          <mxGeometry x="121" y="83" width="259" height="24" as="geometry" />
        </mxCell>
        <mxCell id="cjVENmCrDsrbWY_3om6L-1" value="&lt;font&gt;&lt;font color=&quot;#4d4d4d&quot; style=&quot;font-size: 27px;&quot;&gt;每秒查询数&lt;/font&gt;&lt;br&gt;&lt;/font&gt;" style="text;html=1;strokeColor=none;fillColor=none;align=center;verticalAlign=middle;whiteSpace=wrap;rounded=0;" parent="1" vertex="1">
          <mxGeometry x="151" y="125" width="198.75" height="20" as="geometry" />
        </mxCell>
        <mxCell id="fHy6eYryyDL-RtLBSJ3Z-1" value="&lt;font color=&quot;#4a909b&quot; style=&quot;font-size: 11px;&quot;&gt;公众号：小白debug&lt;/font&gt;" style="text;html=1;strokeColor=none;fillColor=none;align=center;verticalAlign=middle;whiteSpace=wrap;rounded=0;fontSize=16;textOpacity=60;" parent="1" vertex="1">
          <mxGeometry x="187.01" y="153" width="126" height="30" as="geometry" />
        </mxCell>
      </root>
    </mxGraphModel>
  </diagram>
</mxfile>
